<?xml version="1.0" ?>
<!DOCTYPE svg PUBLIC "-//W3C//DTD SVG 1.1//EN" "http://www.w3.org/Graphics/SVG/1.1/DTD/svg11.dtd">
<svg width="256" height="256" version="1.1" xmlns="http://www.w3.org/2000/svg">
<circle cx="37.8895" cy="53.651" r="7.21641" fill="rgb(51,51,51)" />
<circle cx="234.242" cy="55.021" r="2.59781" fill="rgb(217,182,193)" />
<circle cx="241.809" cy="54.2201" r="3.11963" fill="rgb(58,185,223)" />
<circle cx="46.6584" cy="57.2225" r="6.84117" fill="rgb(50,50,50)" />
<circle cx="49.9524" cy="47.9402" r="1.18853" fill="rgb(220,183,194)" />
<circle cx="227.932" cy="49.6918" r="0.235438" fill="rgb(220,183,194)" />
<circle cx="215.31" cy="59.7116" r="1.33996" fill="rgb(220,183,194)" />
<circle cx="20.2976" cy="61.726" r="8.31906" fill="rgb(51,51,51)" />
<circle cx="35.1159" cy="59.5274" r="7.66359" fill="rgb(51,51,51)" />
<circle cx="27.8097" cy="62.6889" r="5.93154" fill="rgb(51,51,51)" />
<circle cx="51.3491" cy="64.8215" r="7.61785" fill="rgb(51,51,51)" />
<circle cx="221.054" cy="53.8681" r="1.35529" fill="rgb(220,183,194)" />
<circle cx="230.118" cy="67.7051" r="4.02363" fill="rgb(54,192,233)" />
<circle cx="49.8902" cy="71.9269" r="8.61094" fill="rgb(51,51,51)" />
<circle cx="15.6221" cy="70.0072" r="6.33773" fill="rgb(51,51,51)" />
<circle cx="22.5714" cy="70.4182" r="7.53141" fill="rgb(51,51,51)" />
<circle cx="113.087" cy="74.5557" r="5.70625" fill="rgb(62,59,56)" />
<circle cx="32.4124" cy="70.7555" r="3.21136" fill="rgb(220,183,193)" />
<circle cx="215.495" cy="71.0614" r="3.98887" fill="rgb(52,197,240)" />
<circle cx="134.323" cy="69.7943" r="2.46747" fill="rgb(220,183,194)" />
<circle cx="119.195" cy="70.846" r="5.17198" fill="rgb(60,58,58)" />
<circle cx="119.33" cy="78.0382" r="6.94729" fill="rgb(51,51,51)" />
<circle cx="58.8998" cy="56.7924" r="1.84403" fill="rgb(220,183,194)" />
<circle cx="39.8572" cy="73.7534" r="3.45938" fill="rgb(220,183,194)" />
<circle cx="109.012" cy="66.0014" r="1.5785" fill="rgb(220,183,194)" />
<circle cx="206.876" cy="65.739" r="1.72885" fill="rgb(220,183,194)" />
<circle cx="54.8932" cy="77.0677" r="6.26398" fill="rgb(51,51,51)" />
<circle cx="111.492" cy="81.8066" r="6.26551" fill="rgb(51,51,51)" />
<circle cx="147.937" cy="78.33" r="3.31226" fill="rgb(220,183,194)" />
<circle cx="207.599" cy="76.5501" r="3.44172" fill="rgb(162,168,183)" />
<circle cx="28.189" cy="81.7985" r="5.94054" fill="rgb(220,182,194)" />
<circle cx="62.2894" cy="68.667" r="4.64539" fill="rgb(220,183,194)" />
<circle cx="232.219" cy="76.3352" r="2.27572" fill="rgb(220,183,194)" />
<circle cx="53.1046" cy="86.0601" r="7.4754" fill="rgb(51,51,51)" />
<circle cx="116.332" cy="88.3943" r="7.2567" fill="rgb(51,51,51)" />
<circle cx="35.8585" cy="87.2433" r="6.03888" fill="rgb(51,51,51)" />
<circle cx="211.174" cy="83.8274" r="4.82168" fill="rgb(52,197,240)" />
<circle cx="198.587" cy="77.2309" r="2.85295" fill="rgb(220,183,194)" />
<circle cx="136.593" cy="83.5734" r="3.5872" fill="rgb(220,183,194)" />
<circle cx="22.3408" cy="87.1379" r="8.02918" fill="rgb(51,51,51)" />
<circle cx="109.091" cy="88.5819" r="6.02064" fill="rgb(50,50,50)" />
<circle cx="114.376" cy="93.3443" r="6.384" fill="rgb(51,51,51)" />
<circle cx="31.2555" cy="90.8659" r="7.59524" fill="rgb(51,51,51)" />
<circle cx="46.3017" cy="93.3391" r="8.06457" fill="rgb(51,51,51)" />
<circle cx="53.6027" cy="93.7451" r="7.04599" fill="rgb(51,51,51)" />
<circle cx="147.545" cy="90.2206" r="10.7358" fill="rgb(51,51,51)" />
<circle cx="223.615" cy="88.2227" r="3.28886" fill="rgb(220,183,194)" />
<circle cx="120.469" cy="93.7814" r="5.54183" fill="rgb(51,51,51)" />
<circle cx="27.076" cy="94.7356" r="4.77678" fill="rgb(179,151,159)" />
<circle cx="37.6849" cy="97.3833" r="8.26992" fill="rgb(51,51,51)" />
<circle cx="111.168" cy="97.5254" r="6.18096" fill="rgb(51,51,51)" />
<circle cx="214.192" cy="92.9431" r="3.76351" fill="rgb(52,196,240)" />
<circle cx="118.452" cy="100.187" r="9.71891" fill="rgb(51,51,51)" />
<circle cx="202.724" cy="94.6442" r="6.25969" fill="rgb(52,197,240)" />
<circle cx="57.8032" cy="101.756" r="8.19884" fill="rgb(51,51,51)" />
<circle cx="158.586" cy="86.3075" r="2.96271" fill="rgb(220,183,194)" />
<circle cx="101.213" cy="92.9783" r="3.95371" fill="rgb(220,183,194)" />
<circle cx="130.066" cy="95.0189" r="3.00798" fill="rgb(246,221,12)" />
<circle cx="50.5466" cy="105.581" r="5.91447" fill="rgb(51,51,51)" />
<circle cx="40.5883" cy="104.984" r="7.18364" fill="rgb(51,51,51)" />
<circle cx="33.622" cy="101.69" r="4.32569" fill="rgb(105,93,96)" />
<circle cx="60.9147" cy="92.3384" r="3.41002" fill="rgb(220,183,194)" />
<circle cx="109.152" cy="104.787" r="7.34214" fill="rgb(54,53,53)" />
<circle cx="140.048" cy="96.3031" r="8.47198" fill="rgb(51,51,51)" />
<circle cx="69.3127" cy="98.7793" r="3.42453" fill="rgb(220,183,194)" />
<circle cx="55.43" cy="110.586" r="8.12431" fill="rgb(51,51,51)" />
<circle cx="46.9274" cy="110.631" r="7.11046" fill="rgb(51,51,51)" />
<circle cx="223.81" cy="97.585" r="2.46464" fill="rgb(220,183,194)" />
<circle cx="118.075" cy="83.9871" r="5.19293" fill="rgb(51,51,51)" />
<circle cx="98.7147" cy="105.207" r="3.90629" fill="rgb(220,183,194)" />
<circle cx="145.936" cy="101.77" r="9.55285" fill="rgb(51,51,51)" />
<circle cx="62.7724" cy="109.381" r="7.76125" fill="rgb(51,51,51)" />
<circle cx="193.209" cy="89.14" r="4.17502" fill="rgb(220,183,193)" />
<circle cx="209.839" cy="103.613" r="5.08929" fill="rgb(52,197,240)" />
<circle cx="124.875" cy="111.402" r="5.97294" fill="rgb(51,51,51)" />
<circle cx="118.312" cy="112.409" r="8.27742" fill="rgb(51,51,51)" />
<circle cx="64.3611" cy="81.7262" r="3.36205" fill="rgb(220,183,194)" />
<circle cx="104.875" cy="112.746" r="7.29406" fill="rgb(51,51,51)" />
<circle cx="55.7944" cy="116.674" r="5.4978" fill="rgb(51,51,51)" />
<circle cx="72.56" cy="110.991" r="4.72431" fill="rgb(220,183,194)" />
<circle cx="201.64" cy="110.393" r="5.89464" fill="rgb(52,196,240)" />
<circle cx="237.673" cy="71.9397" r="1.47719" fill="rgb(220,183,194)" />
<circle cx="121.916" cy="117.482" r="5.70135" fill="rgb(51,51,51)" />
<circle cx="62.1361" cy="117.652" r="8.92659" fill="rgb(51,51,51)" />
<circle cx="189.676" cy="103.347" r="5.56852" fill="rgb(220,183,194)" />
<circle cx="42.6098" cy="63.0278" r="7.39582" fill="rgb(51,51,51)" />
<circle cx="54.657" cy="122.248" r="7.22165" fill="rgb(51,51,51)" />
<circle cx="152.356" cy="113.141" r="3.02424" fill="rgb(220,183,194)" />
<circle cx="133.79" cy="112.025" r="3.15528" fill="rgb(246,221,12)" />
<circle cx="157.384" cy="99.7561" r="3.71984" fill="rgb(220,183,194)" />
<circle cx="99.062" cy="120.95" r="6.12065" fill="rgb(61,59,59)" />
<circle cx="78.2802" cy="119.939" r="2.9386" fill="rgb(219,183,194)" />
<circle cx="117.601" cy="122.734" r="8.28148" fill="rgb(51,51,51)" />
<circle cx="127.031" cy="121.392" r="8.4307" fill="rgb(51,51,51)" />
<circle cx="60.2614" cy="125.916" r="6.76143" fill="rgb(51,51,51)" />
<circle cx="142.831" cy="120.257" r="3.3555" fill="rgb(246,221,12)" />
<circle cx="111.333" cy="126.893" r="7.29365" fill="rgb(51,51,51)" />
<circle cx="52.2462" cy="127.397" r="7.03534" fill="rgb(50,50,50)" />
<circle cx="70.6174" cy="127.101" r="6.55644" fill="rgb(51,51,51)" />
<circle cx="87.7261" cy="125.409" r="2.90903" fill="rgb(220,183,194)" />
<circle cx="64.1836" cy="130.679" r="7.74288" fill="rgb(51,51,51)" />
<circle cx="57.011" cy="132.274" r="5.68205" fill="rgb(51,51,51)" />
<circle cx="46.5381" cy="128.591" r="6.19305" fill="rgb(51,51,51)" />
<circle cx="119.827" cy="130.803" r="8.84775" fill="rgb(51,51,51)" />
<circle cx="234.972" cy="46.2828" r="0.216576" fill="rgb(220,183,194)" />
<circle cx="112.619" cy="134.282" r="7.55574" fill="rgb(51,51,51)" />
<circle cx="108.605" cy="119.311" r="8.0996" fill="rgb(51,51,51)" />
<circle cx="79.7497" cy="131.129" r="3.76609" fill="rgb(220,183,194)" />
<circle cx="50.4882" cy="134.664" r="7.21754" fill="rgb(51,51,51)" />
<circle cx="123.022" cy="104.684" r="5.60445" fill="rgb(51,51,51)" />
<circle cx="129.757" cy="129.614" r="4.10326" fill="rgb(220,183,194)" />
<circle cx="47.941" cy="80.5259" r="7.45933" fill="rgb(51,51,51)" />
<circle cx="62.6245" cy="137.216" r="6.37733" fill="rgb(51,51,51)" />
<circle cx="189.276" cy="117.464" r="7.33728" fill="rgb(220,183,194)" />
<circle cx="106.301" cy="133.986" r="8.83252" fill="rgb(51,51,51)" />
<circle cx="56.3281" cy="138.917" r="5.77079" fill="rgb(51,51,51)" />
<circle cx="74.8993" cy="138.359" r="6.48876" fill="rgb(51,51,51)" />
<circle cx="184.513" cy="130.892" r="3.83136" fill="rgb(220,183,194)" />
<circle cx="80.8036" cy="141.015" r="3.62662" fill="rgb(219,182,193)" />
<circle cx="206.327" cy="136.081" r="5.89298" fill="rgb(52,197,240)" />
<circle cx="96.2069" cy="141.414" r="6.44943" fill="rgb(51,51,51)" />
<circle cx="144.119" cy="132.28" r="3.24032" fill="rgb(246,221,12)" />
<circle cx="89.4396" cy="141.447" r="8.81587" fill="rgb(51,51,51)" />
<circle cx="62.018" cy="143.734" r="6.15058" fill="rgb(50,50,50)" />
<circle cx="116.465" cy="139.508" r="7.51108" fill="rgb(51,51,51)" />
<circle cx="102.974" cy="144.405" r="8.66572" fill="rgb(51,51,51)" />
<circle cx="110.56" cy="143.249" r="9.69452" fill="rgb(51,51,51)" />
<circle cx="55.4865" cy="145.787" r="7.19705" fill="rgb(51,51,51)" />
<circle cx="93.792" cy="147.999" r="7.97088" fill="rgb(51,51,51)" />
<circle cx="75.4995" cy="147.22" r="7.55601" fill="rgb(51,51,51)" />
<circle cx="66.4668" cy="149.209" r="7.23939" fill="rgb(51,51,51)" />
<circle cx="222.782" cy="67.0098" r="3.46684" fill="rgb(52,197,240)" />
<circle cx="83.593" cy="148.19" r="7.12936" fill="rgb(114,100,104)" />
<circle cx="135.109" cy="140.038" r="3.27069" fill="rgb(220,183,194)" />
<circle cx="58.4967" cy="150.29" r="7.68773" fill="rgb(51,51,51)" />
<circle cx="190.866" cy="143.677" r="5.02001" fill="rgb(108,148,165)" />
<circle cx="204.081" cy="146.727" r="5.25839" fill="rgb(52,197,240)" />
<circle cx="49.5871" cy="98.7624" r="6.28825" fill="rgb(51,51,51)" />
<circle cx="98.8334" cy="129.072" r="8.66681" fill="rgb(51,51,51)" />
<circle cx="100.574" cy="151.705" r="7.74976" fill="rgb(51,51,51)" />
<circle cx="178.015" cy="148.803" r="3.9113" fill="rgb(220,183,194)" />
<circle cx="63.3932" cy="154.961" r="5.78239" fill="rgb(51,51,51)" />
<circle cx="124.733" cy="142.846" r="3.54471" fill="rgb(220,183,194)" />
<circle cx="71.0408" cy="154.581" r="7.03826" fill="rgb(51,51,51)" />
<circle cx="153.191" cy="142.564" r="3.70902" fill="rgb(246,221,12)" />
<circle cx="93.1371" cy="155.48" r="6.82508" fill="rgb(51,51,51)" />
<circle cx="78.2415" cy="155.225" r="8.22019" fill="rgb(51,51,51)" />
<circle cx="230.793" cy="83.8165" r="1.11671" fill="rgb(220,183,194)" />
<circle cx="57.9917" cy="156.5" r="4.53747" fill="rgb(66,63,63)" />
<circle cx="67.2029" cy="120.889" r="7.42875" fill="rgb(51,51,51)" />
<circle cx="162.458" cy="151.423" r="4.15205" fill="rgb(246,221,12)" />
<circle cx="107.212" cy="156.096" r="7.00095" fill="rgb(51,51,51)" />
<circle cx="219.354" cy="135.121" r="2.33676" fill="rgb(220,182,194)" />
<circle cx="174.739" cy="158.997" r="5.7089" fill="rgb(138,118,122)" />
<circle cx="102.019" cy="158.631" r="7.25788" fill="rgb(51,51,51)" />
<circle cx="96.9482" cy="160.866" r="8.01371" fill="rgb(51,51,51)" />
<circle cx="64.8183" cy="160.722" r="7.40719" fill="rgb(51,51,51)" />
<circle cx="206.043" cy="157.108" r="3.9829" fill="rgb(52,197,240)" />
<circle cx="85.2758" cy="158.725" r="6.41758" fill="rgb(51,51,51)" />
<circle cx="194.872" cy="156.539" r="5.18486" fill="rgb(52,197,240)" />
<circle cx="185.986" cy="157.388" r="4.02068" fill="rgb(220,183,194)" />
<circle cx="166.027" cy="160.467" r="5.90735" fill="rgb(51,51,51)" />
<circle cx="183.994" cy="165.982" r="3.79797" fill="rgb(220,183,194)" />
<circle cx="158.271" cy="164.082" r="6.48725" fill="rgb(51,51,51)" />
<circle cx="45.2622" cy="121.803" r="6.64865" fill="rgb(51,51,51)" />
<circle cx="79.2331" cy="162.63" r="4.72151" fill="rgb(173,146,153)" />
<circle cx="63.3217" cy="166.668" r="7.8843" fill="rgb(51,51,51)" />
<circle cx="71.6993" cy="162.82" r="9.08761" fill="rgb(51,51,51)" />
<circle cx="177.223" cy="165.381" r="8.16547" fill="rgb(51,51,51)" />
<circle cx="105.843" cy="164.238" r="4.24427" fill="rgb(220,183,194)" />
<circle cx="90.3431" cy="163.605" r="7.39505" fill="rgb(51,51,51)" />
<circle cx="112.288" cy="114.087" r="8.19246" fill="rgb(50,50,50)" />
<circle cx="95.0699" cy="168.6" r="7.53298" fill="rgb(51,51,51)" />
<circle cx="140.909" cy="150.717" r="4.16627" fill="rgb(220,183,194)" />
<circle cx="40.0179" cy="92.0648" r="6.88706" fill="rgb(51,51,51)" />
<circle cx="100.973" cy="168.071" r="8.03485" fill="rgb(51,51,51)" />
<circle cx="166.7" cy="139.418" r="3.85318" fill="rgb(220,183,194)" />
<circle cx="201.379" cy="166.018" r="4.3036" fill="rgb(52,197,240)" />
<circle cx="185.134" cy="172.088" r="4.24583" fill="rgb(75,69,71)" />
<circle cx="102.032" cy="79.2642" r="3.00538" fill="rgb(220,183,194)" />
<circle cx="119.284" cy="152.327" r="4.12263" fill="rgb(220,183,194)" />
<circle cx="25.0213" cy="104.093" r="0.872894" fill="rgb(220,183,194)" />
<circle cx="126.37" cy="75.1138" r="4.76478" fill="rgb(186,167,42)" />
<circle cx="68.7304" cy="170.713" r="6.89114" fill="rgb(51,51,51)" />
<circle cx="192.978" cy="169.939" r="4.6884" fill="rgb(52,197,240)" />
<circle cx="179.057" cy="170.966" r="5.41297" fill="rgb(51,51,51)" />
<circle cx="164.644" cy="171.271" r="7.99353" fill="rgb(51,51,51)" />
<circle cx="227.562" cy="59.684" r="3.54395" fill="rgb(116,162,183)" />
<circle cx="155.826" cy="171.601" r="8.46315" fill="rgb(51,51,51)" />
<circle cx="27.7225" cy="55.4978" r="6.27718" fill="rgb(51,51,51)" />
<circle cx="18.6206" cy="78.7985" r="9.5163" fill="rgb(51,51,51)" />
<circle cx="189.454" cy="176.597" r="6.14311" fill="rgb(51,51,51)" />
<circle cx="79.8235" cy="172.321" r="3.46091" fill="rgb(220,183,194)" />
<circle cx="198.825" cy="175.02" r="5.12945" fill="rgb(51,51,51)" />
<circle cx="236.785" cy="61.8475" r="3.15475" fill="rgb(190,172,185)" />
<circle cx="169.225" cy="176.693" r="8.56891" fill="rgb(51,51,51)" />
<circle cx="95.2345" cy="175.643" r="6.54783" fill="rgb(51,51,51)" />
<circle cx="41.494" cy="114.48" r="6.96336" fill="rgb(51,51,51)" />
<circle cx="70.2112" cy="178.444" r="6.35323" fill="rgb(52,52,52)" />
<circle cx="109.165" cy="150.121" r="6.76209" fill="rgb(51,51,51)" />
<circle cx="184.57" cy="179.883" r="5.15311" fill="rgb(194,193,193)" />
<circle cx="87.1382" cy="176.516" r="3.32724" fill="rgb(220,183,194)" />
<circle cx="49.0948" cy="116.933" r="6.88045" fill="rgb(50,50,50)" />
<circle cx="101.713" cy="176.71" r="6.57993" fill="rgb(51,51,51)" />
<circle cx="158.546" cy="178.723" r="8.83087" fill="rgb(51,51,51)" />
<circle cx="63.1645" cy="179.248" r="6.35344" fill="rgb(51,51,51)" />
<circle cx="216.834" cy="107.248" r="3.28306" fill="rgb(220,182,194)" />
<circle cx="175.011" cy="181.292" r="6.34454" fill="rgb(51,51,51)" />
<circle cx="187.884" cy="183.301" r="5.90356" fill="rgb(51,51,51)" />
<circle cx="194.398" cy="180.601" r="6.39221" fill="rgb(51,51,51)" />
<circle cx="114.576" cy="162.293" r="3.60426" fill="rgb(220,183,194)" />
<circle cx="204.134" cy="121.508" r="5.12324" fill="rgb(51,196,240)" />
<circle cx="166.673" cy="183.099" r="7.17782" fill="rgb(51,51,51)" />
<circle cx="79.4567" cy="184.496" r="5.59792" fill="rgb(140,121,127)" />
<circle cx="172.29" cy="186.232" r="6.9766" fill="rgb(51,51,51)" />
<circle cx="124.608" cy="83.5294" r="2.93842" fill="rgb(246,221,12)" />
<circle cx="180.694" cy="185.075" r="6.49825" fill="rgb(51,51,51)" />
<circle cx="88.6251" cy="185.194" r="6.62298" fill="rgb(51,51,51)" />
<circle cx="72.6422" cy="185.552" r="5.89581" fill="rgb(51,51,51)" />
<circle cx="92.4408" cy="115.278" r="2.89441" fill="rgb(220,183,194)" />
<circle cx="96.6332" cy="183.687" r="8.76132" fill="rgb(51,51,51)" />
<circle cx="65.9999" cy="185.286" r="6.87631" fill="rgb(50,50,50)" />
<circle cx="160.06" cy="185.281" r="7.24064" fill="rgb(51,51,51)" />
<circle cx="191.277" cy="187.422" r="5.3076" fill="rgb(64,60,61)" />
<circle cx="87.172" cy="152.36" r="7.66883" fill="rgb(51,51,51)" />
<circle cx="146.433" cy="161.727" r="5.06175" fill="rgb(220,183,194)" />
<circle cx="176.797" cy="190.213" r="6.96218" fill="rgb(51,51,51)" />
<circle cx="165.023" cy="190.137" r="6.26823" fill="rgb(51,51,51)" />
<circle cx="70.0006" cy="134.273" r="7.91225" fill="rgb(51,51,51)" />
<circle cx="55.8897" cy="162.535" r="2.6613" fill="rgb(220,183,194)" />
<circle cx="185.097" cy="189.95" r="6.2813" fill="rgb(51,51,51)" />
<circle cx="76.6989" cy="191.742" r="6.385" fill="rgb(51,51,51)" />
<circle cx="45.4636" cy="87.3365" r="7.72836" fill="rgb(51,51,51)" />
<circle cx="89.7568" cy="191.432" r="6.47867" fill="rgb(51,51,51)" />
<circle cx="180.669" cy="193.747" r="6.00659" fill="rgb(51,51,51)" />
<circle cx="158.887" cy="126.441" r="5.11359" fill="rgb(220,183,194)" />
<circle cx="171.282" cy="192.769" r="5.48762" fill="rgb(51,51,51)" />
<circle cx="70.0311" cy="191.699" r="4.81381" fill="rgb(118,102,106)" />
<circle cx="82.8084" cy="192.123" r="7.54357" fill="rgb(51,51,51)" />
<circle cx="224.628" cy="107.327" r="0.81286" fill="rgb(220,183,194)" />
<circle cx="221.769" cy="77.823" r="4.4999" fill="rgb(52,197,240)" />
<circle cx="176.886" cy="198.625" r="2.68397" fill="rgb(220,183,194)" />
<circle cx="61.6515" cy="173.011" r="6.79138" fill="rgb(51,51,51)" />
<circle cx="49.1634" cy="155.338" r="0.69518" fill="rgb(220,183,194)" />
<circle cx="202.211" cy="184.977" r="1.18564" fill="rgb(220,183,194)" />
<circle cx="242.665" cy="67.3609" r="1.31374" fill="rgb(220,183,194)" />
<circle cx="151.329" cy="188.14" r="2.31098" fill="rgb(220,183,194)" />
<circle cx="30.9615" cy="115.119" r="0.668876" fill="rgb(220,183,194)" />
<circle cx="35.659" cy="124.239" r="0.793198" fill="rgb(220,182,194)" />
<circle cx="106.647" cy="187.315" r="2.16307" fill="rgb(220,183,194)" />
<circle cx="104.435" cy="124.603" r="7.394" fill="rgb(51,51,51)" />
<circle cx="218.283" cy="144.621" r="1.60617" fill="rgb(220,183,194)" />
<circle cx="36.9467" cy="108.815" r="6.15097" fill="rgb(65,62,62)" />
<circle cx="223.523" cy="125.303" r="0.696991" fill="rgb(220,183,194)" />
<circle cx="146.982" cy="176.52" r="3.57423" fill="rgb(220,183,194)" />
<circle cx="98.1046" cy="194.515" r="4.65602" fill="rgb(220,183,194)" />
<circle cx="100.876" cy="136.872" r="6.53572" fill="rgb(51,51,51)" />
<circle cx="45.9599" cy="147.928" r="0.411483" fill="rgb(220,183,194)" />
<circle cx="191.579" cy="197.003" r="0.868995" fill="rgb(220,183,194)" />
<circle cx="51.8072" cy="167.433" r="0.396257" fill="rgb(220,183,194)" />
<circle cx="42.7297" cy="140.524" r="0.450037" fill="rgb(220,183,194)" />
<circle cx="39.0576" cy="133.058" r="0.46207" fill="rgb(220,182,193)" />
<circle cx="158.32" cy="196.389" r="1.25037" fill="rgb(219,183,194)" />
<circle cx="166.572" cy="200.413" r="0.342099" fill="rgb(220,183,194)" />
<circle cx="247.323" cy="61.1288" r="1.53654" fill="rgb(220,183,194)" />
<circle cx="51.426" cy="141.427" r="4.09255" fill="rgb(83,75,77)" />
<circle cx="53.3073" cy="177.006" r="0.26681" fill="rgb(220,183,194)" />
<circle cx="16.0973" cy="95.2145" r="0.917715" fill="rgb(220,183,194)" />
<circle cx="88.6078" cy="201.436" r="0.993411" fill="rgb(220,183,194)" />
<circle cx="10.3361" cy="85.9416" r="2.09218" fill="rgb(220,183,194)" />
<circle cx="170.159" cy="164.065" r="6.89173" fill="rgb(51,51,51)" />
<circle cx="39.4946" cy="44.0144" r="0.265564" fill="rgb(220,183,194)" />
<circle cx="44.469" cy="101.519" r="7.98902" fill="rgb(51,51,51)" />
<circle cx="29.1172" cy="45.0188" r="0.3814" fill="rgb(220,183,194)" />
<circle cx="195.892" cy="131.027" r="4.93187" fill="rgb(52,196,240)" />
<circle cx="19.7435" cy="48.6969" r="0.438668" fill="rgb(220,183,194)" />
<circle cx="212.86" cy="126.035" r="3.66934" fill="rgb(52,197,240)" />
<circle cx="110.932" cy="175.072" r="3.18796" fill="rgb(220,183,194)" />
<circle cx="12.6001" cy="55.0723" r="0.979986" fill="rgb(220,183,194)" />
<circle cx="115.001" cy="106.902" r="6.44797" fill="rgb(51,51,51)" />
<circle cx="69.0411" cy="142.511" r="6.93268" fill="rgb(51,51,51)" />
<circle cx="6.27973" cy="75.7529" r="2.55512" fill="rgb(219,183,194)" />
<circle cx="7.49773" cy="64.0824" r="2.22513" fill="rgb(220,183,194)" />
<circle cx="40.752" cy="82.7939" r="4.66801" fill="rgb(220,183,194)" />
<circle cx="56.6698" cy="187.433" r="0.188249" fill="rgb(220,183,194)" />
<circle cx="75.8747" cy="201.356" r="0.287336" fill="rgb(220,183,194)" />
<circle cx="122.841" cy="62.2875" r="1.09464" fill="rgb(220,183,194)" />
<circle cx="217.207" cy="116.062" r="4.2417" fill="rgb(219,183,194)" />
<circle cx="63.5952" cy="196.513" r="0.121577" fill="rgb(220,183,194)" />
<circle cx="174.58" cy="203.866" r="0.0964536" fill="rgb(220,183,194)" />
<circle cx="184.881" cy="201.62" r="0.198771" fill="rgb(220,183,194)" />
<circle cx="198.658" cy="192.634" r="0.131856" fill="rgb(220,183,194)" />
<circle cx="207.93" cy="176.881" r="0.488922" fill="rgb(220,183,194)" />
<circle cx="212.817" cy="166.758" r="0.506816" fill="rgb(220,183,194)" />
<circle cx="93.1943" cy="134.017" r="7.71609" fill="rgb(51,51,51)" />
<circle cx="181.863" cy="175.582" r="5.054" fill="rgb(51,51,51)" />
<circle cx="217.14" cy="155.28" r="0.765275" fill="rgb(220,183,194)" />
<circle cx="250.724" cy="53.9811" r="2.04241" fill="rgb(220,183,194)" />
<circle cx="248.735" cy="46.6941" r="0.573449" fill="rgb(220,183,194)" />
<circle cx="241.887" cy="44.9335" r="0.200631" fill="rgb(220,183,194)" />
</svg>
